{"glyphs":{":":{"x_min":0,"x_max":256,"ha":256,"o":""},"$":{"x_min":0,"x_max":440,"ha":440,"o":"m 171 -74 l 134 -78 l 147 -12 q 66 -11 -13 11 l -15 15 l 32 157 l 50 160 l 58 40 q 106 26 155 25 l 196 224 q 118 254 90 287 q 62 320 62 368 q 62 428 116 470 q 170 513 256 519 l 267 573 l 303 577 l 291 520 q 358 520 436 503 l 438 500 l 391 372 l 375 369 l 364 472 q 332 482 284 482 l 246 296 q 325 266 357 230 q 389 195 389 148 q 389 79 331 36 q 273 -8 183 -12 z m 309 120 q 309 149 290 171 q 270 192 229 210 l 191 27 q 244 33 276 56 q 309 80 309 120 z m 140 396 q 140 364 159 345 q 179 326 213 310 l 248 480 q 197 475 169 453 q 140 431 140 396 z"},"?":{"x_min":0,"x_max":435,"ha":435,"o":"m 211 188 q 142 254 142 292 q 142 310 151 326 q 160 342 175 358 q 190 374 209 390 q 229 405 249 421 q 275 441 296 458 q 317 476 331 492 q 345 508 353 524 q 360 541 360 561 q 360 598 338 618 q 315 638 275 638 q 240 638 203 624 l 153 512 l 133 509 l 133 646 q 223 678 295 678 q 366 678 406 648 q 446 618 446 560 q 446 528 434 502 q 423 476 404 453 q 386 431 363 411 q 339 391 316 373 q 296 357 278 343 q 259 328 245 313 q 231 298 222 283 q 214 268 214 251 q 214 229 230 203 z m 164 103 q 192 103 207 87 q 222 71 222 45 q 222 19 205 3 q 188 -14 163 -14 q 138 -14 123 3 q 108 19 108 45 q 108 71 125 87 q 141 103 164 103 z"},"<":{"x_min":0,"x_max":552,"ha":552,"o":"m 41 255 l 501 450 l 501 388 l 111 225 l 501 62 l 501 0 l 41 196 z"},"'":{"x_min":0,"x_max":188,"ha":188,"o":"m 122 726 l 213 726 l 129 489 l 98 489 z"},"=":{"x_min":0,"x_max":552,"ha":552,"o":"m 41 338 l 501 338 l 501 279 l 41 279 z m 41 172 l 501 172 l 501 113 l 41 113 z"},"a":{"x_min":0,"x_max":514,"ha":514,"o":"m 469 454 q 462 432 453 395 q 444 358 419 237 l 388 85 q 386 75 386 66 q 386 45 402 37 q 417 30 457 31 l 456 12 q 392 -9 362 -9 q 334 -9 317 8 q 300 24 300 56 q 300 61 301 72 q 252 29 217 9 q 183 -11 168 -11 q 106 -11 70 37 q 34 85 34 157 q 34 284 110 371 q 187 458 304 458 q 349 458 407 440 q 431 446 463 458 z m 367 400 q 331 420 297 420 q 225 420 175 345 q 125 270 125 179 q 125 127 145 91 q 164 55 199 55 q 210 55 238 68 q 265 81 308 113 z"},"L":{"x_min":0,"x_max":545,"ha":545,"o":"m 275 548 l 200 151 q 190 97 181 43 l 413 43 l 496 173 l 520 177 l 478 2 l 475 -1 q 364 0 256 0 l 126 0 q 67 0 7 -1 l 9 20 l 70 38 q 83 41 86 53 q 90 72 95 96 q 100 121 106 150 l 182 546 q 187 571 190 591 q 193 611 196 627 q 198 640 188 644 l 128 663 l 131 684 q 196 682 254 682 q 311 682 372 684 l 370 663 l 308 645 q 295 642 292 629 q 288 612 282 580 q 275 547 275 548 z"},"3":{"x_min":0,"x_max":457,"ha":457,"o":"m 108 162 q 198 172 256 212 q 315 252 315 314 q 315 354 287 380 q 258 405 211 405 q 147 405 78 368 l 65 400 q 165 464 260 464 q 331 464 372 429 q 414 395 414 344 q 414 282 362 238 q 311 193 232 169 l 232 167 q 303 169 349 132 q 396 95 396 28 q 396 -14 378 -50 q 361 -85 330 -113 q 299 -141 257 -162 q 215 -183 166 -197 q 116 -210 62 -218 q 7 -225 -48 -225 l -46 -188 q -1 -188 41 -182 q 84 -176 122 -165 q 161 -154 193 -137 q 225 -121 248 -98 q 271 -76 284 -48 q 297 -19 297 16 q 297 71 266 102 q 235 133 177 133 q 140 133 104 126 z"},";":{"x_min":0,"x_max":256,"ha":256,"o":""},"J":{"x_min":0,"x_max":312,"ha":312,"o":"m 125 684 q 189 682 247 682 q 304 682 365 684 l 363 663 l 301 645 q 289 642 285 629 q 281 612 277 592 q 273 572 269 548 l 185 105 q 175 58 164 18 q 152 -21 138 -52 q 123 -83 102 -107 q 80 -131 51 -150 q 22 -168 -17 -183 q -57 -197 -105 -208 l -111 -184 q -57 -163 -23 -137 q 11 -111 32 -78 q 54 -44 66 -3 q 78 39 87 91 l 175 546 q 179 571 183 591 q 187 611 189 627 q 191 640 180 644 l 121 663 z"},"V":{"x_min":0,"x_max":667,"ha":667,"o":"m 560 684 q 622 682 674 682 q 727 682 771 684 l 768 663 l 719 647 q 708 644 699 637 q 690 631 683 624 q 675 616 670 608 q 665 601 660 593 l 310 0 l 260 -4 l 158 585 q 151 620 145 631 q 136 644 119 648 l 74 663 l 77 684 q 139 682 197 682 q 254 682 322 684 l 320 663 l 273 648 q 261 645 255 639 q 250 633 250 618 q 250 604 257 561 l 331 121 l 582 559 q 598 586 607 606 q 617 625 617 633 q 617 638 613 642 q 609 646 601 648 l 557 661 z"},"\"":{"x_min":0,"x_max":345,"ha":345,"o":""},"7":{"x_min":0,"x_max":483,"ha":483,"o":"m 35 -197 l 408 377 l 114 377 l 69 281 l 49 277 l 73 449 l 78 453 q 132 452 184 452 q 236 451 286 451 l 316 451 q 367 451 413 452 q 458 452 501 453 l 500 432 q 465 380 430 325 q 395 270 361 213 q 326 157 293 101 q 260 46 230 -7 q 201 -59 175 -107 q 149 -155 129 -195 l 37 -200 z"},"S":{"x_min":0,"x_max":509,"ha":509,"o":"m 442 643 q 406 654 364 654 q 288 654 239 618 q 189 581 189 521 q 189 490 200 469 q 212 447 231 430 q 250 413 274 400 q 298 388 324 375 q 353 361 378 345 q 404 330 423 309 q 443 289 455 263 q 467 236 467 201 q 467 151 447 112 q 426 72 386 43 q 305 -13 181 -13 q 85 -13 8 12 l 6 16 l 60 182 l 83 186 l 91 42 q 139 27 188 27 q 271 27 321 65 q 371 102 371 165 q 371 196 360 218 q 349 240 330 257 q 312 274 287 287 q 262 300 235 314 q 207 328 182 344 q 157 361 137 382 q 118 403 106 430 q 94 457 94 491 q 94 583 174 639 q 253 695 375 695 q 448 695 524 676 l 527 673 l 473 521 l 453 517 z"},"}":{"x_min":0,"x_max":352,"ha":352,"o":"m 319 282 q 273 274 249 255 q 226 235 214 178 l 168 -47 q 154 -114 121 -146 q 87 -179 9 -179 q -5 -179 -28 -178 l -25 -154 q 28 -149 51 -130 q 73 -111 83 -67 l 123 129 q 138 204 165 239 q 191 273 245 289 l 246 292 q 208 304 194 326 q 180 349 180 383 q 180 411 188 452 l 222 614 q 232 659 232 679 q 232 704 216 717 q 199 731 157 738 l 161 760 q 241 760 275 738 q 310 716 310 665 q 310 643 303 611 l 260 403 q 255 380 255 362 q 255 334 270 320 q 284 306 321 299 z"},"Z":{"x_min":0,"x_max":567,"ha":567,"o":"m -10 -1 l -8 20 l 464 639 l 189 639 l 139 521 l 118 518 l 119 680 l 123 684 q 246 682 353 682 l 451 682 q 521 682 595 684 l 593 663 l 123 43 l 412 43 l 497 176 l 521 179 l 478 2 l 474 -1 q 338 0 231 0 l 123 0 q 54 0 -10 -1 z"},"x":{"x_min":0,"x_max":496,"ha":496,"o":"m 471 364 q 449 370 431 370 q 415 370 400 365 q 385 360 368 347 q 351 333 332 310 q 312 286 288 249 q 309 200 329 154 q 349 107 365 74 q 372 59 378 50 q 384 42 392 38 q 400 33 412 32 q 425 31 445 31 l 443 12 q 382 -9 346 -9 q 329 -9 316 -1 q 303 6 292 30 q 278 59 263 96 q 247 133 230 171 q 194 120 169 86 q 144 51 122 31 q 100 10 78 1 q 56 -8 25 -8 q 7 -8 -10 -4 q 3 47 16 83 l 19 85 q 41 80 61 80 q 79 80 94 85 q 109 89 126 103 q 144 117 164 142 q 185 168 213 211 q 205 230 195 252 q 186 274 176 296 q 167 318 158 339 q 149 359 142 376 q 135 390 128 398 q 121 406 111 409 q 101 413 89 415 q 77 416 61 417 l 62 435 q 129 458 163 458 q 177 458 185 454 q 192 450 198 443 q 205 437 210 427 q 215 417 221 404 q 231 379 244 350 q 257 320 271 288 q 303 334 327 366 q 351 397 373 417 q 395 437 417 446 q 439 455 467 455 q 486 455 500 452 q 491 413 473 366 z"},")":{"x_min":0,"x_max":369,"ha":369,"o":"m 182 767 q 325 613 325 398 q 325 49 -8 -184 l -28 -163 q 245 77 245 419 q 245 622 160 750 z"},"&":{"x_min":0,"x_max":733,"ha":733,"o":"m 360 203 q 347 224 347 246 q 347 290 395 326 q 444 363 503 363 q 527 363 551 358 q 575 354 598 348 q 620 342 640 338 q 661 333 679 333 q 713 333 755 374 l 770 360 q 737 307 712 289 q 688 271 660 271 q 629 271 561 292 l 560 290 q 581 255 581 211 q 581 165 559 124 q 537 82 497 51 q 458 20 404 1 q 351 -18 287 -18 q 175 -18 104 38 q 34 93 34 184 q 34 256 80 306 q 125 356 215 377 l 215 380 q 151 432 151 503 q 151 579 217 626 q 282 674 382 674 q 450 674 515 657 l 518 654 l 468 517 l 449 513 l 438 625 q 409 635 375 635 q 316 635 278 601 q 241 566 241 507 q 241 409 356 386 l 349 357 q 328 361 299 361 q 223 361 178 316 q 132 271 132 201 q 132 128 184 83 q 236 38 320 38 q 363 38 403 51 q 442 63 472 87 q 502 110 520 142 q 538 174 538 212 q 538 241 530 261 q 523 281 512 293 q 501 306 488 312 q 475 318 462 318 q 437 318 424 304 q 411 290 411 272 q 411 250 427 231 l 426 227 q 395 213 360 203 z"},"_":{"x_min":0,"x_max":500,"ha":500,"o":"m 461 -131 l -39 -131 l -39 -87 l 461 -87 z"},"v":{"x_min":0,"x_max":457,"ha":457,"o":"m 210 96 q 242 135 268 175 q 294 215 313 257 q 332 298 342 342 q 353 386 353 432 q 399 443 444 458 l 450 454 q 450 423 436 384 q 422 344 399 301 q 377 257 348 212 q 319 167 290 127 q 260 86 231 52 q 203 17 181 -6 l 142 -10 q 135 52 127 108 q 119 165 109 225 q 106 243 102 268 q 98 293 92 317 q 87 342 80 364 q 74 386 65 396 q 60 402 55 406 q 49 410 42 412 q 34 414 24 415 q 14 416 0 417 l 1 435 q 66 458 105 458 q 125 458 136 451 q 147 444 153 431 q 158 419 162 400 q 167 381 172 359 q 176 336 180 311 q 185 285 188 260 q 192 236 196 214 q 199 191 201 174 q 204 158 206 137 q 208 117 210 96 z"},"O":{"x_min":0,"x_max":779,"ha":779,"o":"m 348 -17 q 214 -17 136 57 q 57 130 57 265 q 57 445 174 571 q 290 697 459 697 q 593 697 672 624 q 750 551 750 415 q 750 234 634 108 q 518 -17 348 -17 z m 646 428 q 646 536 592 597 q 539 658 449 658 q 315 658 238 542 q 162 427 162 252 q 162 146 214 84 q 267 22 358 22 q 492 22 569 137 q 646 252 646 428 z"},"(":{"x_min":0,"x_max":367,"ha":367,"o":"m 209 -184 q 66 -30 66 185 q 66 534 399 767 l 419 746 q 146 506 146 164 q 146 -39 230 -167 z"},"C":{"x_min":0,"x_max":645,"ha":645,"o":"m 613 513 l 593 510 l 582 640 q 533 654 475 654 q 338 654 249 545 q 160 437 160 284 q 160 170 226 106 q 291 41 404 41 q 478 41 558 69 l 563 49 q 465 -15 347 -15 q 215 -15 136 64 q 57 143 57 274 q 57 459 182 577 q 306 695 494 695 q 575 695 667 675 l 669 671 z"},"W":{"x_min":0,"x_max":1003,"ha":1003,"o":"m 628 -4 l 558 516 l 284 0 l 238 -4 l 158 596 q 155 619 147 631 q 140 644 123 649 l 79 663 l 82 684 q 136 682 194 682 q 253 682 326 684 l 324 663 l 271 647 q 253 643 253 618 q 253 605 259 561 l 312 141 l 589 683 l 627 686 l 701 137 l 923 578 q 935 601 940 614 q 946 627 946 635 q 946 642 942 644 q 938 647 931 649 l 886 661 l 889 684 q 947 682 995 682 q 1047 682 1095 684 l 1093 663 l 1043 647 q 1028 643 1017 633 q 1007 624 995 601 l 674 0 z"},"A":{"x_min":0,"x_max":661,"ha":661,"o":"m 146 21 l 143 -1 q 81 0 28 0 q -24 0 -67 -1 l -65 20 l -16 35 q -5 39 4 45 q 13 51 20 58 q 27 65 33 73 q 38 82 43 89 l 395 687 l 442 694 l 545 97 q 550 63 559 51 q 567 39 583 33 l 629 20 l 626 -1 q 564 0 506 0 q 449 0 380 -1 l 382 20 l 429 33 q 439 37 446 42 q 452 47 452 63 q 452 79 445 122 l 423 254 l 195 254 l 121 123 q 105 95 96 76 q 86 57 86 49 q 86 44 90 40 q 94 37 103 34 z m 416 297 l 372 566 l 220 297 z"},"f":{"x_min":0,"x_max":301,"ha":301,"o":"m 123 399 l 59 413 l 60 434 l 130 440 l 131 445 q 158 581 230 656 q 303 731 402 731 q 448 731 489 718 q 473 662 461 597 l 441 593 l 410 688 q 401 690 386 690 q 328 690 289 641 q 250 591 223 458 l 219 441 l 342 441 l 333 397 l 211 397 l 136 33 q 107 -112 56 -177 q 5 -241 -83 -241 q -116 -241 -157 -231 q -149 -186 -137 -145 l -134 -143 q -69 -192 -42 -192 q 15 -192 41 -49 z"},"Q":{"x_min":0,"x_max":779,"ha":779,"o":"m 459 697 q 592 697 671 624 q 750 551 750 415 q 750 240 645 120 q 539 0 398 -14 q 437 -127 595 -127 q 659 -127 710 -106 l 715 -128 q 618 -209 561 -209 q 382 -209 332 -17 q 209 -12 133 59 q 57 130 57 265 q 57 444 173 571 q 290 697 459 697 z m 646 428 q 646 536 592 597 q 539 658 449 658 q 315 658 238 542 q 162 426 162 252 q 162 146 214 84 q 267 22 358 22 q 492 22 569 136 q 646 251 646 428 z"},"w":{"x_min":0,"x_max":695,"ha":695,"o":"m 452 96 q 483 135 508 175 q 533 215 551 257 q 569 298 579 342 q 589 386 589 432 q 638 443 681 458 l 687 454 q 687 423 673 384 q 659 344 637 301 q 615 257 587 212 q 559 167 530 127 q 500 86 472 52 q 444 17 423 -6 l 384 -10 q 373 128 351 248 q 290 134 182 -6 l 142 -10 q 135 52 127 108 q 119 165 109 225 q 106 243 102 268 q 98 293 92 317 q 87 342 80 364 q 74 386 65 396 q 60 402 54 406 q 49 410 42 412 q 34 414 24 415 q 14 416 0 417 l 1 435 q 65 458 105 458 q 125 458 136 451 q 147 444 153 431 q 158 419 162 400 q 167 381 172 359 q 176 336 180 311 q 185 285 188 260 q 192 236 196 213 q 199 191 201 174 q 208 117 210 97 q 286 204 340 313 q 330 374 315 434 q 358 442 393 451 l 397 448 q 403 421 410 385 q 417 348 423 310 q 429 271 435 235 q 440 199 443 174 q 450 117 452 96 z"},"-":{"x_min":0,"x_max":338,"ha":338,"o":"m 46 274 l 303 274 l 290 211 l 33 211 z"},"E":{"x_min":0,"x_max":569,"ha":569,"o":"m 254 682 l 361 682 q 471 682 593 684 l 595 680 l 540 529 l 520 525 l 510 639 l 293 639 l 242 369 l 291 369 q 326 369 389 370 q 402 371 408 383 l 438 449 l 464 450 q 449 380 443 347 q 437 315 426 250 l 399 248 l 394 315 q 393 328 382 328 q 339 329 283 329 l 234 329 l 200 151 q 190 97 181 43 l 409 43 l 487 168 l 511 172 l 470 2 l 467 -1 q 341 0 233 0 l 126 0 q 67 0 7 -1 l 9 20 l 70 38 q 83 41 86 53 q 90 72 95 96 q 100 121 106 150 l 182 546 q 187 571 190 591 q 193 611 196 627 q 198 640 188 644 l 128 663 l 131 684 q 196 682 254 682 z"},"s":{"x_min":0,"x_max":422,"ha":422,"o":"m 318 409 q 292 417 257 417 q 208 417 177 397 q 146 377 146 344 q 146 326 155 313 q 163 300 177 290 q 191 279 209 271 q 228 263 247 255 q 268 246 289 236 q 310 226 326 212 q 342 199 352 181 q 362 163 362 138 q 362 69 305 29 q 248 -10 156 -10 q 81 -10 7 21 q 23 80 37 146 l 56 150 l 87 41 q 121 30 163 30 q 211 30 240 51 q 269 72 269 109 q 269 125 261 136 q 253 148 241 157 q 228 167 211 175 q 195 183 177 190 q 156 199 136 209 q 116 220 100 234 q 84 248 74 268 q 64 287 64 314 q 64 381 122 419 q 179 458 269 458 q 335 458 397 435 q 383 386 369 315 l 350 312 z"},">":{"x_min":0,"x_max":552,"ha":552,"o":"m 501 196 l 41 0 l 41 62 l 431 225 l 41 388 l 41 450 l 501 255 z"},"l":{"x_min":0,"x_max":270,"ha":270,"o":"m 102 683 l 102 700 q 187 716 272 735 l 276 729 q 267 693 255 635 q 242 578 228 510 l 140 80 q 138 71 138 62 q 138 43 155 37 q 171 31 210 31 l 208 12 q 146 -9 109 -9 q 81 -9 65 5 q 50 19 50 48 q 50 55 51 64 q 52 72 54 83 l 175 670 z"},"8":{"x_min":0,"x_max":537,"ha":537,"o":"m 129 500 q 129 571 190 621 q 251 670 344 670 q 422 670 472 633 q 522 596 522 540 q 522 482 477 438 q 432 393 354 361 q 430 313 462 272 q 493 230 493 180 q 493 97 420 42 q 348 -13 242 -13 q 148 -13 91 30 q 33 72 33 143 q 33 210 81 257 q 129 303 229 343 q 177 377 153 414 q 129 452 129 500 z m 123 153 q 123 99 160 62 q 197 26 256 26 q 314 26 355 62 q 397 97 397 153 q 397 198 369 236 q 342 274 256 325 q 181 292 152 251 q 123 210 123 153 z m 435 533 q 435 581 406 606 q 377 631 328 631 q 275 631 244 601 q 213 570 213 521 q 213 480 242 447 q 271 414 322 382 q 435 433 435 533 z"},"\\":{"x_min":0,"x_max":393,"ha":393,"o":"m 288 -110 l 98 696 l 155 696 l 345 -110 z"},"e":{"x_min":0,"x_max":447,"ha":447,"o":"m 128 213 q 126 196 126 180 q 126 117 157 83 q 188 49 244 49 q 308 49 375 85 l 385 68 q 352 33 301 11 q 249 -11 198 -11 q 125 -11 79 39 q 34 88 34 167 q 34 206 44 243 q 53 279 71 312 q 88 344 112 371 q 136 398 166 417 q 196 437 231 448 q 266 458 304 458 q 364 458 396 433 q 428 407 428 366 q 427 292 337 254 q 246 217 128 213 z m 133 249 q 237 255 290 285 q 342 315 342 362 q 342 388 326 402 q 311 417 284 417 q 234 417 193 372 q 151 327 133 249 z"},"b":{"x_min":0,"x_max":514,"ha":514,"o":"m 42 17 q 48 42 53 65 q 59 89 83 209 l 177 670 l 104 683 l 104 700 q 186 715 271 735 l 276 729 q 267 693 255 635 q 243 578 229 511 l 206 401 q 309 458 340 458 q 397 458 436 412 q 474 366 474 290 q 474 163 396 76 q 317 -11 200 -11 q 113 -11 42 17 z m 132 38 q 171 28 206 28 q 280 28 331 102 q 382 177 382 268 q 382 320 363 357 q 343 394 307 394 q 262 394 198 362 z"},"%":{"x_min":0,"x_max":824,"ha":824,"o":""},"m":{"x_min":0,"x_max":834,"ha":834,"o":"m 46 -2 l 123 366 q 126 388 126 393 q 126 405 115 411 q 103 417 58 417 l 59 435 q 124 458 163 458 q 188 458 201 446 q 215 434 215 412 q 215 409 215 406 q 215 402 214 398 q 308 458 382 458 q 464 458 482 389 q 583 458 663 458 q 714 458 741 431 q 769 404 769 357 q 769 333 763 312 l 713 80 q 712 75 711 70 q 711 66 711 62 q 711 43 727 37 q 743 31 782 31 l 780 12 q 720 -9 684 -9 q 655 -9 639 5 q 624 19 624 48 q 624 55 625 64 q 625 72 627 83 l 674 294 q 678 315 678 333 q 678 365 663 381 q 647 397 612 397 q 553 397 486 355 q 485 334 481 312 l 418 2 l 330 -2 l 391 294 q 396 315 396 333 q 396 365 381 381 q 367 397 331 397 q 273 397 207 357 l 134 2 z"},"#":{"x_min":0,"x_max":552,"ha":552,"o":"m 135 -5 l 78 -5 l 120 186 l 21 186 l 25 242 l 132 242 l 164 384 l 66 384 l 70 440 l 176 440 l 219 632 l 276 632 l 233 440 l 375 440 l 417 632 l 474 632 l 432 440 l 530 440 l 526 384 l 419 384 l 388 242 l 486 242 l 482 186 l 375 186 l 333 -5 l 276 -5 l 318 186 l 177 186 z m 189 242 l 331 242 l 362 384 l 221 384 z"},",":{"x_min":0,"x_max":256,"ha":256,"o":"m -19 -114 q 62 -56 62 3 q 62 45 21 70 q 22 97 40 114 q 57 130 82 130 q 108 130 124 111 q 141 92 141 60 q 141 -45 -3 -136 z"},"n":{"x_min":0,"x_max":558,"ha":558,"o":"m 46 -2 l 123 366 q 126 387 126 393 q 126 406 115 411 q 104 417 58 417 l 59 435 q 125 458 163 458 q 188 458 201 446 q 215 434 215 412 q 215 406 214 398 q 310 458 384 458 q 436 458 464 431 q 492 404 492 357 q 492 335 486 312 l 436 80 q 435 75 435 70 q 434 66 434 62 q 434 43 450 37 q 466 31 505 31 l 503 12 q 441 -9 404 -9 q 376 -9 361 5 q 345 19 345 48 q 345 62 349 83 l 397 294 q 401 315 401 333 q 401 364 386 381 q 370 397 333 397 q 275 397 207 357 l 134 2 z"},"h":{"x_min":0,"x_max":550,"ha":550,"o":"m 39 -2 l 177 670 l 104 683 l 104 700 q 188 715 273 735 l 277 729 q 268 693 256 635 q 244 578 230 510 l 207 398 q 302 458 377 458 q 429 458 456 431 q 484 404 484 357 q 484 335 479 312 l 429 80 q 428 75 427 70 q 427 66 427 62 q 427 43 443 37 q 459 31 498 31 l 496 12 q 434 -9 397 -9 q 369 -9 354 5 q 339 19 339 48 q 339 62 343 83 l 389 294 q 394 314 394 333 q 394 363 378 380 q 363 397 326 397 q 267 397 199 357 l 125 2 z"},"z":{"x_min":0,"x_max":486,"ha":486,"o":"m 0 10 q 101 124 167 203 q 232 282 335 408 l 156 408 l 101 302 l 82 299 q 83 384 81 443 l 83 448 q 183 446 276 446 q 366 446 469 448 l 470 437 q 383 338 306 244 q 229 149 140 39 l 326 39 l 404 148 l 425 151 q 410 75 398 2 l 394 -1 q 304 0 188 0 q 86 0 3 -1 z"},"B":{"x_min":0,"x_max":587,"ha":587,"o":"m 131 684 q 196 682 255 682 q 270 682 310 684 q 350 687 365 687 q 468 687 521 649 q 573 611 573 547 q 573 404 413 368 q 545 332 545 218 q 545 112 464 54 q 382 -3 247 -3 q 223 -3 192 -1 q 162 0 126 0 q 67 0 7 -1 l 9 20 l 70 38 q 83 42 86 53 q 90 72 95 96 q 100 121 106 150 l 182 546 q 187 571 190 591 q 193 611 196 627 q 198 639 188 644 l 128 663 z m 235 343 l 179 42 q 205 35 249 35 q 343 35 392 79 q 441 123 441 208 q 441 274 403 309 q 364 345 291 345 q 263 345 235 343 z m 243 380 q 265 379 290 379 q 383 379 429 418 q 476 457 476 536 q 476 589 441 618 q 406 646 337 646 q 316 646 292 643 z"},"K":{"x_min":0,"x_max":656,"ha":656,"o":"m 275 548 l 200 150 q 194 121 190 97 q 186 73 182 53 q 181 41 192 37 l 245 20 l 242 -1 q 183 0 126 0 q 67 0 7 -1 l 9 20 l 70 38 q 84 42 86 53 q 90 72 95 96 q 100 121 106 150 l 182 546 q 187 571 190 591 q 193 611 196 627 q 198 640 188 644 l 128 663 l 131 684 q 196 682 254 682 q 311 682 367 684 l 365 663 l 308 646 q 296 643 292 630 q 289 613 285 592 q 280 572 275 548 z m 250 348 l 481 565 q 508 591 526 609 q 543 626 545 637 q 547 647 535 650 l 497 661 l 500 684 q 549 682 611 682 q 667 682 715 684 l 713 663 l 663 647 q 640 640 619 625 q 599 609 575 589 l 343 371 l 505 83 q 517 63 528 52 q 540 41 561 34 l 610 20 l 607 -1 q 564 0 501 0 q 485 0 470 0 q 455 0 438 -1 q 427 34 373 131 z"},"R":{"x_min":0,"x_max":624,"ha":624,"o":"m 200 150 q 194 121 190 97 q 186 74 183 55 q 181 40 192 36 l 245 20 l 242 -1 q 183 0 126 0 q 67 0 7 -1 l 9 20 l 70 38 q 83 42 86 53 q 90 72 95 96 q 100 121 106 150 l 182 546 q 187 571 190 591 q 193 611 196 627 q 199 639 188 644 l 128 663 l 131 684 q 196 682 255 682 q 262 682 275 682 q 288 683 311 684 q 333 685 347 686 q 362 686 368 686 q 473 686 528 647 q 583 608 583 536 q 583 380 395 333 q 408 306 419 280 q 431 253 441 226 q 452 200 462 175 q 472 150 484 124 q 493 101 502 83 q 512 65 524 52 q 537 39 554 31 q 571 22 597 18 l 593 -3 q 562 -8 537 -8 q 507 -8 486 -4 q 465 0 449 10 q 434 21 421 38 q 409 56 397 84 q 388 105 379 128 q 370 151 362 176 q 352 203 342 230 q 332 258 320 287 q 315 297 311 303 q 307 309 302 313 q 298 316 292 318 q 286 319 279 319 l 232 320 z m 239 356 q 267 354 292 354 q 384 354 432 397 q 480 439 480 522 q 480 585 446 615 q 411 646 346 646 q 327 646 293 642 z"},"T":{"x_min":0,"x_max":602,"ha":602,"o":"m 258 0 q 198 0 124 -1 l 129 20 l 203 41 q 216 44 219 56 q 227 93 238 151 l 331 639 l 167 639 l 99 508 l 78 505 l 97 680 l 101 684 q 220 682 330 682 l 448 682 q 558 682 680 684 l 682 680 l 621 508 l 601 505 l 591 639 l 425 639 l 332 151 q 321 93 314 56 q 313 44 325 41 l 395 20 l 392 -1 q 314 0 258 0 z"},"P":{"x_min":0,"x_max":574,"ha":574,"o":"m 233 330 q 257 324 293 324 q 389 324 439 371 q 489 419 489 509 q 489 575 452 610 q 416 646 343 646 q 316 646 293 640 z m 9 20 l 70 38 q 84 42 86 53 q 90 72 95 96 q 100 121 106 150 l 182 546 q 187 571 190 591 q 193 611 196 627 q 198 639 188 644 l 128 663 l 131 684 q 193 682 238 682 q 257 682 305 684 q 354 686 374 686 q 475 686 533 643 q 591 601 591 522 q 591 406 509 345 q 426 283 298 283 q 261 283 226 289 l 199 150 q 188 92 182 54 q 180 42 191 39 l 256 20 l 253 -1 q 182 0 125 0 q 67 0 7 -1 z"},"|":{"x_min":0,"x_max":348,"ha":348,"o":"m 218 745 l 218 -248 l 164 -248 l 164 745 z"},"t":{"x_min":0,"x_max":360,"ha":360,"o":"m 216 397 q 196 315 181 251 q 167 186 156 136 q 150 107 150 92 q 150 67 167 55 q 183 42 216 42 q 247 42 295 53 l 298 31 q 263 13 222 2 q 182 -9 147 -9 q 104 -9 82 11 q 60 31 60 69 q 60 84 64 109 q 73 155 89 227 q 104 298 128 398 l 63 413 l 64 434 l 144 441 l 196 563 q 221 569 251 578 l 255 574 q 239 509 224 441 l 362 441 l 353 397 z"},"M":{"x_min":0,"x_max":892,"ha":892,"o":"m 751 684 q 794 682 831 682 q 867 682 928 684 l 926 663 l 861 644 q 849 640 846 627 q 839 595 830 546 l 754 150 q 743 92 736 53 q 735 42 747 38 l 803 20 l 800 -1 q 735 0 678 0 q 620 0 564 -1 l 566 20 l 625 37 q 637 40 641 54 q 649 92 660 150 l 741 573 l 390 0 l 361 -2 l 228 573 l 147 150 q 136 92 130 54 q 127 40 139 37 l 190 20 l 188 -1 q 130 0 91 0 q 56 0 -7 -1 l -5 20 l 58 38 q 72 42 74 53 q 83 92 94 150 l 169 546 q 179 595 184 627 q 186 640 175 644 l 118 663 l 121 684 q 184 682 220 682 q 259 682 296 684 l 422 145 z"},"g":{"x_min":0,"x_max":508,"ha":508,"o":"m 304 69 q 255 30 220 12 q 186 -6 171 -6 q 110 -6 72 41 q 34 88 34 159 q 34 286 112 372 q 189 458 308 458 q 353 458 412 440 q 423 443 438 448 q 452 452 468 458 l 473 454 q 470 443 466 428 q 462 413 458 395 q 454 377 445 337 q 436 298 423 237 l 395 100 q 376 10 351 -55 q 326 -119 292 -161 q 259 -203 218 -223 q 176 -243 125 -243 q 65 -243 -15 -218 q -8 -172 7 -125 l 11 -124 q 112 -190 162 -190 q 187 -190 206 -178 q 225 -167 240 -141 q 256 -115 270 -74 q 283 -34 295 24 z m 372 400 q 337 420 301 420 q 228 420 177 346 q 126 272 126 183 q 126 129 146 95 q 165 60 202 60 q 233 60 313 113 z"},"j":{"x_min":0,"x_max":262,"ha":262,"o":"m 57 417 l 59 435 q 125 458 163 458 q 188 458 202 446 q 216 435 216 410 q 216 400 214 390 l 145 56 q 125 -41 81 -104 q 36 -167 -82 -246 l -100 -226 q -1 -129 20 -78 q 42 -27 56 44 l 123 367 q 124 375 125 382 q 126 388 126 393 q 126 406 115 411 q 104 417 57 417 z m 258 634 q 258 608 243 593 q 227 577 204 577 q 180 577 165 592 q 150 606 150 630 q 150 656 166 671 q 182 686 206 686 q 229 686 244 672 q 258 658 258 634 z"},"i":{"x_min":0,"x_max":272,"ha":272,"o":"m 147 80 q 145 70 145 62 q 145 43 161 37 q 177 31 216 31 l 214 12 q 151 -9 116 -9 q 88 -9 73 5 q 58 20 58 48 q 58 62 62 83 l 120 367 q 122 375 123 382 q 124 388 124 393 q 124 406 113 411 q 102 417 55 417 l 57 435 q 123 458 161 458 q 186 458 199 446 q 213 435 213 410 q 213 400 211 390 z m 256 634 q 256 608 240 593 q 225 577 201 577 q 178 577 163 592 q 148 606 148 630 q 148 656 164 671 q 180 686 204 686 q 227 686 241 672 q 256 658 256 634 z"},"y":{"x_min":0,"x_max":480,"ha":480,"o":"m 370 431 q 418 444 464 458 l 469 454 q 449 384 423 320 q 396 255 367 198 q 338 141 310 91 q 281 42 258 3 q 224 -51 200 -104 q 176 -156 159 -198 q 151 -214 145 -223 q 138 -232 127 -237 q 117 -242 103 -244 q 88 -245 68 -245 q 16 -245 -24 -240 l -26 -222 q 1 -218 24 -210 q 46 -201 63 -188 q 73 -180 84 -167 q 96 -154 112 -133 q 128 -111 150 -79 q 171 -47 201 0 l 183 4 q 179 31 172 66 q 166 102 156 140 q 147 178 137 217 q 126 255 116 288 q 105 321 96 346 q 86 372 79 383 q 71 394 63 401 q 55 408 44 411 q 34 414 22 415 q 10 416 -4 417 l -3 435 q 61 458 102 458 q 122 458 134 450 q 146 443 153 431 q 160 418 169 396 q 178 373 188 344 q 197 315 206 281 q 215 248 224 212 q 232 177 238 142 q 245 106 249 75 q 299 161 328 249 q 357 336 370 431 z"},"@":{"x_min":0,"x_max":843,"ha":843,"o":"m 473 91 q 387 21 354 21 q 303 21 270 60 q 236 99 236 164 q 236 274 305 350 q 374 425 474 425 q 511 425 563 409 q 591 415 612 423 l 618 419 q 611 395 602 359 q 594 323 584 274 l 553 124 q 550 109 550 100 q 550 68 574 68 q 584 68 600 74 q 617 80 636 93 q 655 106 674 126 q 694 146 709 175 q 725 204 735 241 q 745 278 745 326 q 745 432 678 494 q 611 556 500 556 q 334 556 225 445 q 116 333 116 166 q 116 37 194 -45 q 271 -127 398 -127 q 576 -127 712 -5 l 729 -28 q 662 -96 567 -136 q 472 -176 370 -176 q 222 -176 131 -84 q 41 9 41 155 q 41 336 176 464 q 311 592 504 592 q 634 592 716 520 q 797 448 797 330 q 797 279 785 237 q 772 195 752 160 q 731 126 705 100 q 679 74 651 56 q 623 39 595 30 q 567 21 544 21 q 512 21 493 39 q 474 58 473 91 z m 527 374 q 497 390 467 390 q 408 390 363 327 q 319 264 319 184 q 319 136 336 108 q 354 79 382 79 q 409 79 476 125 z"},".":{"x_min":0,"x_max":256,"ha":256,"o":"m 84 103 q 112 103 127 87 q 142 71 142 45 q 142 19 125 3 q 109 -14 83 -14 q 58 -14 43 3 q 29 19 29 45 q 29 71 45 87 q 62 103 84 103 z"},"p":{"x_min":0,"x_max":522,"ha":522,"o":"m -61 -217 l -7 -201 q 7 -196 9 -186 q 13 -167 18 -141 q 24 -114 31 -78 l 122 366 q 126 388 126 393 q 126 405 114 411 q 103 417 57 417 l 59 435 q 124 458 163 458 q 187 458 201 446 q 215 434 215 412 q 215 410 215 407 q 214 404 214 401 l 214 401 q 317 458 349 458 q 405 458 444 412 q 482 366 482 290 q 482 163 403 75 q 323 -12 200 -12 q 167 -12 130 -5 l 108 -113 q 103 -138 100 -155 q 97 -171 95 -182 q 93 -196 105 -199 l 171 -217 l 167 -237 q 92 -236 51 -236 q 2 -236 -62 -237 z m 140 36 q 172 28 204 28 q 289 28 340 103 q 391 177 391 268 q 391 321 371 357 q 351 394 315 394 q 270 394 206 362 z"},"X":{"x_min":0,"x_max":644,"ha":644,"o":"m 95 684 q 150 682 220 682 q 278 682 347 684 l 345 663 l 301 650 q 277 644 277 625 q 277 609 294 572 l 368 414 l 510 582 q 542 618 542 634 q 542 645 526 649 l 483 661 l 486 684 q 540 682 599 682 q 656 682 705 684 l 703 663 l 652 647 q 633 642 619 630 q 604 617 580 589 l 389 370 l 520 88 q 536 55 544 46 q 552 38 568 33 l 612 20 l 609 -1 q 554 0 495 0 q 431 0 356 -1 l 359 20 l 405 32 q 426 38 426 59 q 426 73 409 110 l 319 302 l 147 100 q 116 62 116 49 q 116 37 134 32 l 175 21 l 171 -1 q 117 0 58 0 q 6 0 -46 -1 l -44 20 l 5 35 q 23 40 38 52 q 52 64 73 87 l 299 346 l 180 600 q 169 624 161 634 q 153 644 136 649 l 92 663 z"},"*":{"x_min":0,"x_max":433,"ha":433,"o":"m 363 688 l 302 544 l 451 578 l 460 506 l 304 519 l 381 389 l 316 358 l 281 509 l 180 395 l 131 447 l 264 529 l 125 589 l 159 652 l 278 550 l 292 702 z"},"Y":{"x_min":0,"x_max":592,"ha":592,"o":"m 345 348 l 499 561 q 516 584 528 603 q 541 622 541 632 q 541 645 522 649 l 479 661 l 482 684 q 537 682 593 682 q 646 682 695 684 l 693 663 l 643 647 q 624 642 612 630 q 601 618 587 601 l 361 300 l 333 150 q 327 121 323 97 q 318 73 315 53 q 313 41 329 37 l 383 20 l 380 -1 q 315 0 258 0 q 200 0 140 -1 l 142 20 l 203 38 q 216 41 219 53 q 223 72 228 96 q 233 121 239 150 l 267 298 l 156 587 q 143 617 134 630 q 125 644 107 649 l 63 663 l 66 684 q 112 682 187 682 q 246 682 315 684 l 313 663 l 266 650 q 255 647 249 642 q 243 636 243 625 q 243 612 259 572 z"},"c":{"x_min":0,"x_max":457,"ha":457,"o":"m 376 89 l 387 72 q 351 34 302 12 q 252 -10 205 -10 q 131 -10 84 40 q 36 90 36 176 q 36 296 119 377 q 202 458 318 458 q 382 458 440 432 q 422 363 410 301 l 391 298 l 354 412 q 333 417 311 417 q 231 417 179 352 q 128 286 128 191 q 128 123 160 86 q 193 49 252 49 q 307 49 376 89 z"},"!":{"x_min":0,"x_max":275,"ha":275,"o":"m 124 195 l 178 658 l 292 665 l 295 661 l 155 195 z m 117 103 q 146 103 160 87 q 175 71 175 45 q 175 19 159 3 q 142 -14 116 -14 q 91 -14 77 3 q 62 19 62 45 q 62 71 78 87 q 95 103 117 103 z"},"/":{"x_min":0,"x_max":393,"ha":393,"o":"m 24 -110 l 320 696 l 378 696 l 83 -110 z"},"[":{"x_min":0,"x_max":345,"ha":345,"o":"m 106 -125 l 221 -153 l 217 -174 l 23 -174 l 214 756 l 407 756 l 404 735 l 276 708 z"},"6":{"x_min":0,"x_max":541,"ha":541,"o":"m 540 646 q 274 618 175 353 l 176 352 q 236 417 324 417 q 399 417 448 369 q 496 321 496 245 q 496 141 422 64 q 348 -13 241 -13 q 150 -13 101 45 q 52 102 52 202 q 52 253 66 307 q 80 361 107 413 q 135 464 176 510 q 217 557 271 593 q 325 628 392 652 q 458 675 538 680 z m 398 240 q 397 303 369 338 q 340 373 289 373 q 224 373 182 317 q 141 261 141 175 q 141 105 169 65 q 196 24 247 24 q 313 24 356 88 q 398 151 398 240 z"},"r":{"x_min":0,"x_max":387,"ha":387,"o":"m 46 -2 l 123 366 q 126 387 126 393 q 126 406 115 411 q 104 417 58 417 l 59 435 q 125 458 163 458 q 188 458 201 446 q 215 434 215 412 q 215 409 214 398 q 314 458 390 458 l 392 455 q 376 383 361 301 l 341 298 q 330 345 317 364 q 305 383 276 383 q 248 383 208 362 l 134 2 z"},"2":{"x_min":0,"x_max":460,"ha":460,"o":"m 397 153 l 418 157 l 379 2 l 375 -1 q 296 0 181 0 q 57 0 -5 -1 l -1 37 q 77 87 133 125 q 188 164 224 197 q 260 229 276 258 q 293 286 293 316 q 293 356 267 379 q 240 402 201 402 q 147 402 88 371 l 74 402 q 158 464 243 464 q 307 464 350 428 q 394 392 394 335 q 394 303 376 273 q 359 243 324 213 q 290 182 237 149 q 185 115 114 75 l 114 73 l 345 73 z"},"{":{"x_min":0,"x_max":352,"ha":352,"o":"m 53 300 q 99 308 122 327 q 146 347 158 404 l 204 629 q 217 696 251 729 q 284 761 363 761 q 376 761 400 760 l 396 736 q 343 731 321 712 q 298 693 289 649 l 249 453 q 233 378 207 343 q 181 309 126 293 l 126 291 q 163 278 177 256 q 191 233 191 199 q 191 171 183 130 l 150 -32 q 140 -77 140 -97 q 140 -122 156 -135 q 172 -149 214 -156 l 211 -178 q 130 -178 96 -156 q 62 -134 62 -83 q 62 -61 68 -29 l 111 179 q 116 202 116 220 q 116 248 102 262 q 87 276 50 283 z"},"9":{"x_min":0,"x_max":541,"ha":541,"o":"m 10 -189 q 279 -161 375 99 l 374 99 q 314 35 226 35 q 149 35 102 82 q 54 130 54 207 q 54 312 129 388 q 204 464 308 464 q 397 464 448 408 q 498 352 498 250 q 498 198 484 144 q 470 91 442 40 q 415 -11 374 -56 q 333 -102 279 -137 q 225 -173 158 -196 q 91 -218 12 -224 z m 151 211 q 152 148 181 113 q 209 78 261 78 q 326 78 367 133 q 408 188 408 276 q 408 348 380 387 q 352 427 303 427 q 236 427 194 364 q 151 301 151 211 z"}," ":{"x_min":0,"x_max":236,"ha":236,"o":""},"I":{"x_min":0,"x_max":338,"ha":338,"o":"m 200 150 q 194 121 190 97 q 186 73 182 53 q 181 41 196 37 l 250 20 l 247 -1 q 183 0 127 0 q 67 0 7 -1 l 9 20 l 70 38 q 83 41 86 53 q 90 72 95 96 q 100 121 106 150 l 182 546 q 187 571 190 591 q 193 611 196 627 q 198 640 188 644 l 128 663 l 131 684 q 196 682 253 682 q 311 682 372 684 l 370 663 l 308 645 q 295 642 292 629 q 288 612 284 592 q 280 572 275 548 z"},"H":{"x_min":0,"x_max":780,"ha":780,"o":"m 236 339 l 200 150 q 189 92 182 53 q 180 40 192 37 l 244 20 l 241 -1 q 183 0 125 0 q 68 0 7 -1 l 9 20 l 70 38 q 84 42 86 53 q 95 92 106 150 l 182 546 q 191 595 196 627 q 198 640 188 644 l 128 663 l 131 684 q 196 682 252 682 q 311 682 369 684 l 367 663 l 308 646 q 295 643 292 630 q 285 595 275 548 l 244 383 l 592 383 l 624 548 q 633 595 639 630 q 641 643 629 646 l 577 663 l 580 684 q 640 682 697 682 q 754 682 814 684 l 812 663 l 749 644 q 737 640 734 627 q 727 595 717 546 l 642 150 q 631 92 625 53 q 623 42 634 38 l 692 20 l 689 -1 q 624 0 567 0 q 508 0 453 -1 l 455 20 l 512 37 q 525 40 528 53 q 537 92 548 150 l 584 339 z"},"4":{"x_min":0,"x_max":519,"ha":519,"o":"m 290 76 l 321 241 l 408 248 l 375 76 l 482 76 l 473 18 q 422 20 365 20 l 351 -57 q 345 -86 339 -121 q 333 -155 327 -195 q 283 -200 240 -208 l 236 -204 q 244 -166 251 -131 q 257 -97 264 -65 l 280 20 l 164 20 q 132 20 94 19 q 55 19 10 18 l 13 54 q 62 109 112 165 q 162 221 210 273 q 259 326 305 373 q 352 421 392 460 l 456 464 l 458 458 q 431 433 400 401 q 369 369 336 335 q 303 300 270 265 q 236 229 205 195 q 173 161 145 130 q 117 100 95 76 z"},"~":{"x_min":0,"x_max":552,"ha":552,"o":"m 41 243 q 106 286 165 286 q 196 286 225 276 q 255 266 284 254 q 311 243 337 234 q 363 225 391 225 q 438 225 501 267 l 501 208 q 439 167 381 167 q 350 167 320 177 q 290 187 261 199 q 233 209 208 218 q 182 227 154 227 q 106 227 41 184 z"},"D":{"x_min":0,"x_max":750,"ha":750,"o":"m 126 0 q 67 0 7 -1 l 9 20 l 70 38 q 84 42 86 53 q 90 72 95 96 q 100 121 106 150 l 182 546 q 187 571 190 591 q 193 611 196 627 q 198 639 188 644 l 128 663 l 131 684 q 196 682 255 682 q 284 682 332 684 q 379 687 412 687 q 558 687 639 620 q 720 554 720 428 q 720 236 599 116 q 479 -3 276 -3 q 250 -3 202 -1 q 154 0 126 0 z m 180 42 q 225 35 288 35 q 438 35 528 148 q 617 261 617 431 q 617 539 563 593 q 508 646 396 646 q 352 646 293 643 z"},"^":{"x_min":0,"x_max":552,"ha":552,"o":"m 311 682 l 501 284 l 438 284 l 280 616 l 122 284 l 61 284 l 251 682 z"},"0":{"x_min":0,"x_max":539,"ha":539,"o":"m 294 464 q 386 464 441 409 q 497 354 497 259 q 497 140 427 64 q 356 -13 248 -13 q 155 -13 100 42 q 45 98 45 189 q 45 310 115 387 q 185 464 294 464 z m 289 426 q 223 426 181 355 q 140 284 140 184 q 140 112 170 69 q 200 25 253 25 q 319 25 360 96 q 401 166 401 267 q 401 342 371 384 q 340 426 289 426 z"},"F":{"x_min":0,"x_max":528,"ha":528,"o":"m 200 150 q 189 92 183 55 q 181 43 192 40 l 260 20 l 256 -1 q 184 0 126 0 q 68 0 7 -1 l 9 20 l 70 38 q 84 42 86 53 q 95 92 106 150 l 182 546 q 187 571 190 591 q 193 611 196 627 q 198 640 188 644 l 128 663 l 131 684 q 196 682 254 682 l 361 682 q 471 682 593 684 l 595 680 l 540 529 l 520 525 l 510 639 l 293 639 l 240 359 l 276 359 q 327 359 390 359 q 403 360 408 373 l 441 439 l 465 440 q 450 372 444 339 q 438 307 427 239 l 403 237 l 395 305 q 393 317 383 318 q 319 319 268 319 l 232 319 z"},"`":{"x_min":0,"x_max":410,"ha":410,"o":"m 284 510 l 251 510 l 162 692 l 255 692 z m 0 458 z"},"k":{"x_min":0,"x_max":512,"ha":512,"o":"m 42 -2 l 180 670 l 106 683 l 106 700 q 148 708 190 716 q 232 725 275 735 l 279 729 q 271 693 259 635 q 247 578 233 510 l 128 2 z m 472 -1 q 404 0 376 0 q 368 0 356 0 q 345 0 330 -1 q 308 50 274 112 q 240 173 192 247 q 348 383 383 446 q 401 446 413 446 q 444 446 526 447 l 524 427 q 498 421 480 416 q 463 411 450 405 q 437 399 423 392 q 410 384 393 369 l 281 270 l 394 81 q 413 49 426 38 q 439 27 475 19 z"},"u":{"x_min":0,"x_max":556,"ha":556,"o":"m 417 442 l 505 448 l 432 93 q 428 76 428 66 q 428 44 443 37 q 458 30 499 31 l 497 12 q 435 -9 404 -9 q 375 -9 359 8 q 342 24 342 56 q 342 65 343 74 q 252 -11 183 -11 q 128 -11 98 22 q 68 56 68 115 q 68 141 75 171 l 115 367 q 117 375 118 382 q 119 388 119 393 q 119 405 107 411 q 96 417 50 417 l 52 435 q 117 458 156 458 q 181 458 195 446 q 208 435 208 410 q 208 399 207 390 l 158 171 q 153 148 153 131 q 153 94 172 75 q 191 55 227 55 q 274 55 350 116 z"},"]":{"x_min":0,"x_max":345,"ha":345,"o":"m 260 708 l 145 735 l 148 756 l 342 756 l 151 -174 l -41 -174 l -38 -153 l 89 -125 z"},"U":{"x_min":0,"x_max":730,"ha":730,"o":"m 114 684 q 179 682 235 682 q 294 682 355 684 l 353 663 l 291 645 q 278 642 275 629 q 271 612 267 592 q 263 572 258 548 l 210 292 q 199 232 199 193 q 199 117 238 75 q 276 34 351 34 q 407 34 445 51 q 483 68 510 102 q 536 135 552 185 q 569 235 582 301 l 628 548 q 633 572 636 592 q 640 612 643 629 q 644 641 633 645 l 577 661 l 580 684 q 643 682 684 682 q 727 682 786 684 l 784 663 l 721 644 q 709 639 706 627 q 703 611 698 591 q 694 571 690 546 l 642 295 q 626 220 604 162 q 581 104 545 64 q 510 24 459 4 q 409 -16 339 -16 q 225 -16 165 37 q 104 90 104 190 q 104 229 113 276 l 165 546 q 169 571 173 591 q 176 611 179 627 q 182 639 170 644 l 111 663 z"},"o":{"x_min":0,"x_max":523,"ha":523,"o":"m 283 458 q 373 458 426 404 q 480 350 480 258 q 480 142 412 66 q 344 -10 237 -10 q 146 -10 92 44 q 39 98 39 188 q 39 305 106 381 q 173 458 283 458 z m 277 417 q 212 417 172 348 q 131 279 132 183 q 132 112 161 72 q 190 31 243 31 q 310 31 349 102 q 387 172 387 265 q 387 337 358 377 q 329 417 277 417 z"},"N":{"x_min":0,"x_max":726,"ha":726,"o":"m 223 558 l 148 150 q 143 121 138 97 q 134 73 131 54 q 129 41 140 38 l 197 21 l 193 -1 q 131 0 95 0 q 56 0 -5 -1 l -3 20 l 58 38 q 72 42 75 53 q 79 73 84 97 q 89 121 94 150 l 167 546 q 172 571 175 591 q 179 611 181 627 q 184 640 173 644 l 114 663 l 117 684 q 149 683 174 682 q 199 682 216 682 q 227 682 238 682 q 250 683 261 684 l 555 157 l 629 548 q 634 572 638 592 q 642 612 645 629 q 646 641 634 645 l 578 661 l 581 684 q 613 683 638 682 q 663 682 681 682 q 701 682 725 682 q 750 683 780 684 l 778 663 l 714 644 q 703 640 700 627 q 696 611 692 591 q 688 571 683 546 l 579 0 l 540 -4 z"},"+":{"x_min":0,"x_max":552,"ha":552,"o":"m 41 255 l 242 255 l 242 456 l 301 456 l 301 255 l 501 255 l 501 196 l 301 196 l 301 -5 l 242 -5 l 242 196 l 41 196 z"},"G":{"x_min":0,"x_max":677,"ha":677,"o":"m 612 513 l 592 510 l 580 640 q 534 654 478 654 q 337 654 248 546 q 159 438 159 286 q 159 173 220 99 q 281 25 381 25 q 416 25 453 33 l 478 166 q 483 191 487 211 q 490 230 493 247 q 493 259 484 264 l 425 283 l 428 304 q 493 302 549 302 q 608 302 661 304 l 659 283 l 605 267 q 592 263 589 252 q 585 232 581 212 q 577 192 572 168 l 542 13 l 539 10 q 448 -15 362 -15 q 219 -15 137 61 q 56 136 56 271 q 56 459 179 577 q 302 695 497 695 q 579 695 666 675 l 668 671 z"},"q":{"x_min":0,"x_max":510,"ha":510,"o":"m 175 -217 l 234 -201 q 247 -197 250 -186 q 263 -126 303 69 q 254 28 220 9 q 185 -11 170 -11 q 107 -11 70 37 q 33 85 33 156 q 33 284 111 371 q 189 458 307 458 q 353 458 411 440 q 435 446 467 458 l 472 454 q 466 432 458 395 q 449 358 422 237 l 356 -83 q 340 -164 336 -185 q 334 -198 345 -201 l 399 -217 l 396 -237 q 334 -236 287 -236 q 238 -236 173 -237 z m 371 400 q 336 420 300 420 q 227 420 176 345 q 125 270 125 179 q 125 127 145 91 q 165 55 201 55 q 212 55 240 68 q 269 81 312 113 z"},"d":{"x_min":0,"x_max":519,"ha":519,"o":"m 354 683 l 354 700 q 439 716 523 735 l 528 729 q 519 693 506 635 q 494 578 480 510 l 393 85 q 391 75 391 66 q 391 45 406 37 q 421 30 461 31 l 460 12 q 397 -9 367 -9 q 338 -9 322 8 q 305 24 305 56 q 305 61 306 72 q 255 29 220 9 q 185 -11 170 -11 q 107 -11 70 37 q 33 85 33 157 q 33 284 112 371 q 191 458 310 458 q 343 458 382 451 l 427 670 z m 371 401 q 335 419 300 419 q 227 419 176 345 q 125 270 125 179 q 125 127 145 91 q 165 55 201 55 q 212 55 240 68 q 269 81 312 113 z"},"1":{"x_min":0,"x_max":308,"ha":308,"o":"m 57 411 l 59 432 q 155 446 251 464 l 254 460 q 233 375 215 284 l 192 160 q 179 95 173 56 q 170 42 182 38 l 255 18 l 253 -1 q 166 0 120 0 q 75 0 -12 -1 l -10 18 l 69 38 q 82 42 84 54 q 93 93 102 142 l 119 228 q 137 326 150 401 z"},"5":{"x_min":0,"x_max":465,"ha":465,"o":"m -46 -224 l -44 -188 q 29 -186 92 -170 q 156 -155 202 -127 q 249 -99 275 -59 q 302 -20 302 30 q 302 100 251 142 q 201 184 74 197 l 72 200 l 144 453 q 195 451 282 451 q 384 451 438 453 l 439 449 l 414 371 l 166 377 l 132 266 q 263 253 331 197 q 399 142 399 53 q 399 10 383 -28 q 367 -65 337 -95 q 307 -126 266 -150 q 225 -173 175 -190 q 126 -206 70 -215 q 13 -223 -46 -224 z"}}}
